# xmcd CD database file
#
# Track frame offsets:
#	150
#	12057
#	35507
#	64230
#	77667
#	99620
#	117769
#	138009
#	152506
#	166850
#	180629
#	199136
#	211202
#	227180
#	243863
#	258027
#	271625
#	285975
#	306636
#	321658
#
# Disc length: 4441 seconds
#
# Revision: 1
# Processed by: cddbd v1.5.2PL0 Copyright (c) Steve Scherf et al.
# Submitted via: CDex 1.70beta2
#
DISCID=08115714
DTITLE=Various Artist - Best Swing Jazz 100 (Disc4)
DYEAR=2009
DGENRE=Jazz
TTITLE0=Take The A Train
TTITLE1=Black And Tan Fantasy
TTITLE2=Things Ain’t What They Used To Be
TTITLE3=Satin Doll
TTITLE4=C Jam Blues
TTITLE5=Rockin’In Rhythm
TTITLE6=Caravan
TTITLE7=Stormy Weather
TTITLE8=Jumpin’At The Woodside
TTITLE9=Jive At Five
TTITLE10=Blue And Sentimental
TTITLE11=The Kid From Red Bank
TTITLE12=April In Paris
TTITLE13=One O’clock Jump
TTITLE14=Blues On Parade
TTITLE15=Woodchopper’s Ball
TTITLE16=Blue Flame
TTITLE17=The Peanut Vendor
TTITLE18=Taboo
TTITLE19=Malaguena
EXTD=YEAR: 2009
EXTT0=
EXTT1=
EXTT2=
EXTT3=
EXTT4=
EXTT5=
EXTT6=
EXTT7=
EXTT8=
EXTT9=
EXTT10=
EXTT11=
EXTT12=
EXTT13=
EXTT14=
EXTT15=
EXTT16=
EXTT17=
EXTT18=
EXTT19=
PLAYORDER=
